#tb 0: 1/25
0,          2,          2,        1,   152064, 0xbdc2b880
0,          4,          4,        1,   152064, 0x4ebf93fe
0,          6,          6,        1,   152064, 0xe30d6871
0,          8,          8,        1,   152064, 0x04f46b9b
0,         10,         10,        1,   152064, 0xd7dd219a
0,         12,         12,        1,   152064, 0x02fc6511
0,         14,         14,        1,   152064, 0x98868faa
0,         16,         16,        1,   152064, 0x54b94f92
0,         18,         18,        1,   152064, 0xe3b6be4b
0,         20,         20,        1,   152064, 0xf148cf10
0,         22,         22,        1,   152064, 0xda3239b8
0,         24,         24,        1,   152064, 0x6c5d7331
0,         26,         26,        1,   152064, 0x825f1fea
0,         28,         28,        1,   152064, 0x47791056
0,         30,         30,        1,   152064, 0xc08e8a58
0,         32,         32,        1,   152064, 0x020299f3
0,         34,         34,        1,   152064, 0x0dfd4457
0,         36,         36,        1,   152064, 0xcf005e68
0,         38,         38,        1,   152064, 0x1f9e2c32
0,         40,         40,        1,   152064, 0xa8359324
0,         42,         42,        1,   152064, 0x4b03752d
0,         44,         44,        1,   152064, 0xd6281621
0,         46,         46,        1,   152064, 0xc97ac928
0,         48,         48,        1,   152064, 0xded90dcd
0,         50,         50,        1,   152064, 0xd6883255
0,         52,         52,        1,   152064, 0x6edb4d4f
0,         54,         54,        1,   152064, 0xd6f93a80
0,         56,         56,        1,   152064, 0x163d6153
0,         58,         58,        1,   152064, 0x04b90c06
0,         60,         60,        1,   152064, 0xee8730c1
0,         62,         62,        1,   152064, 0xd5f5c669
0,         64,         64,        1,   152064, 0xcc600b1f
0,         66,         66,        1,   152064, 0x15ddde03
0,         68,         68,        1,   152064, 0xd0388dd0
0,         70,         70,        1,   152064, 0xa292ab7d
0,         72,         72,        1,   152064, 0xacf584e9
0,         74,         74,        1,   152064, 0xcef42714
0,         76,         76,        1,   152064, 0xeb162f35
0,         78,         78,        1,   152064, 0x0a07de7b
0,         80,         80,        1,   152064, 0x7ae76c81
0,         82,         82,        1,   152064, 0x139c8fda
0,         84,         84,        1,   152064, 0x43724411
0,         86,         86,        1,   152064, 0x07b2ddea
0,         88,         88,        1,   152064, 0x831a1cc7
0,         90,         90,        1,   152064, 0x092f5073
0,         92,         92,        1,   152064, 0xe5b6d380
0,         94,         94,        1,   152064, 0xdd30d69e
0,         96,         96,        1,   152064, 0x887020b2
0,         98,         98,        1,   152064, 0x84436510
0,        100,        100,        1,   152064, 0x49f63606
0,        102,        102,        1,   152064, 0x6b96e959
0,        104,        104,        1,   152064, 0xc6247cc7
0,        106,        106,        1,   152064, 0x7a67c532
0,        108,        108,        1,   152064, 0x93f4c476
0,        110,        110,        1,   152064, 0x3c119654
0,        112,        112,        1,   152064, 0xa45f7c72
0,        114,        114,        1,   152064, 0x2ac50cb0
0,        116,        116,        1,   152064, 0x9bf16d06
0,        118,        118,        1,   152064, 0xfa0750d9
0,        120,        120,        1,   152064, 0x02197630
0,        122,        122,        1,   152064, 0x6d44f9b5
0,        124,        124,        1,   152064, 0x86b211f5
0,        126,        126,        1,   152064, 0xf4fda5d0
0,        128,        128,        1,   152064, 0x36f840a7
0,        130,        130,        1,   152064, 0x42412992
0,        132,        132,        1,   152064, 0xd0c9ba37
0,        134,        134,        1,   152064, 0xc40eba62
0,        136,        136,        1,   152064, 0x2d093b53
0,        138,        138,        1,   152064, 0xee39c69c
0,        140,        140,        1,   152064, 0xcbbf8968
0,        142,        142,        1,   152064, 0xfddc1704
0,        144,        144,        1,   152064, 0x8dc47c61
0,        146,        146,        1,   152064, 0xf15580bf
0,        148,        148,        1,   152064, 0x9c71a8b0
0,        150,        150,        1,   152064, 0x19b90b9f
0,        152,        152,        1,   152064, 0xb65ae287
0,        154,        154,        1,   152064, 0xf265693d
0,        156,        156,        1,   152064, 0x721714a1
0,        158,        158,        1,   152064, 0x383e8ac5
0,        160,        160,        1,   152064, 0x02558677
0,        162,        162,        1,   152064, 0xdaab3cdf
0,        164,        164,        1,   152064, 0xc939a2f6
0,        166,        166,        1,   152064, 0x977afa7f
0,        168,        168,        1,   152064, 0xe5e65f35
0,        170,        170,        1,   152064, 0x247546fa
0,        172,        172,        1,   152064, 0x49ff2094
0,        174,        174,        1,   152064, 0x9fd58cda
0,        176,        176,        1,   152064, 0x3e31b6e3
0,        178,        178,        1,   152064, 0x75c6d796
0,        180,        180,        1,   152064, 0x4ab3e7bb
0,        182,        182,        1,   152064, 0x393935ea
0,        184,        184,        1,   152064, 0xc8e62905
0,        186,        186,        1,   152064, 0xbb149e61
0,        188,        188,        1,   152064, 0x2553c4c5
0,        190,        190,        1,   152064, 0x7f82a8b4
0,        192,        192,        1,   152064, 0x26ef31e6
0,        194,        194,        1,   152064, 0xf029744a
0,        196,        196,        1,   152064, 0x0a6f191a
0,        198,        198,        1,   152064, 0x55808643
0,        199,        199,        1,   152064, 0x27576172
